<?xml version="1.0" encoding="UTF-8" standalone="no"?>
<!DOCTYPE svg PUBLIC "-//W3C//DTD SVG 1.1//EN" "http://www.w3.org/Graphics/SVG/1.1/DTD/svg11.dtd">
<svg width="100%" height="100%" viewBox="0 0 1136 1136" version="1.1" xmlns="http://www.w3.org/2000/svg" xmlns:xlink="http://www.w3.org/1999/xlink" xml:space="preserve" xmlns:serif="http://www.serif.com/" style="fill-rule:evenodd;clip-rule:evenodd;stroke-linejoin:round;stroke-miterlimit:2;">
    <g transform="matrix(1,0,0,1,-748.253138,-518.832361)">
        <circle cx="1315.926" cy="1086.505" r="567.673" style="fill:rgb(255,210,48);"/>
        <g transform="matrix(1.449051,0,0,1.449051,102.808479,-117.612972)">
            <path d="M952.467,1084.684C949.232,1084.684 945.29,1083.37 940.64,1080.741C935.99,1078.113 933.665,1074.777 933.665,1070.734C933.665,1063.86 934.473,1057.289 936.091,1051.021C937.708,1044.754 938.921,1038.386 939.73,1031.916L937.304,1033.735L930.026,1068.307C925.173,1061.434 922.747,1054.56 922.747,1047.686C922.747,1046.068 923.152,1044.451 923.96,1042.833C916.278,1046.473 908.494,1049.505 900.609,1051.931C892.724,1054.357 884.536,1055.57 876.045,1055.57C854.21,1055.57 833.689,1052.74 814.482,1047.079C795.275,1041.418 775.968,1034.342 756.559,1025.851L753.526,1017.966C734.117,1009.879 716.225,998.961 699.849,985.213C683.472,971.465 669.32,955.797 657.392,938.207C645.463,920.618 636.163,901.715 629.491,881.497C622.82,861.28 619.484,840.658 619.484,819.631C619.484,801.436 622.011,783.644 627.065,766.257C632.12,748.87 639.701,732.696 649.81,717.735L646.171,715.915C636.467,730.876 628.683,746.848 622.82,763.831C616.957,780.814 614.025,798.403 614.025,816.599C614.025,834.39 616.451,852.283 621.303,870.276C626.156,888.27 633.03,905.556 641.925,922.135C650.821,938.713 661.334,954.078 673.465,968.231C685.595,981.574 698.939,993.098 713.495,1002.803C699.343,993.907 686,982.989 673.465,970.05C660.93,956.302 650.113,941.24 641.015,924.864C631.918,908.488 624.74,891.303 619.484,873.309C614.227,855.315 611.599,837.827 611.599,820.845C611.599,790.923 618.372,763.326 631.918,738.054C645.463,712.782 663.154,691.048 684.989,672.852C706.824,654.656 731.59,640.403 759.288,630.092C786.986,619.781 814.988,614.625 843.292,614.625C861.488,614.625 878.976,617.052 895.757,621.904C912.537,626.756 929.419,632.013 946.402,637.673C944.38,638.886 943.268,640.504 943.066,642.526C942.864,644.547 942.56,646.468 942.156,648.288C941.752,650.107 941.044,651.624 940.033,652.837C939.022,654.05 936.899,654.656 933.665,654.656C928.408,654.656 923.253,653.847 918.198,652.23C913.144,650.613 908.393,648.793 903.945,646.771L902.125,654.656C904.956,655.465 908.696,657.082 913.346,659.508C917.996,661.935 922.646,664.664 927.296,667.697C931.946,670.729 935.99,674.065 939.427,677.704C942.864,681.343 944.582,684.78 944.582,688.015C944.582,692.867 942.662,695.799 938.82,696.81C934.979,697.821 931.239,698.326 927.599,698.326C915.469,698.326 903.338,696.507 891.208,692.867C879.077,689.228 866.947,687.409 854.816,687.409C832.981,687.409 811.955,690.441 791.737,696.507C771.52,702.572 753.728,711.366 738.363,722.89C722.998,734.414 710.665,748.567 701.365,765.347C692.065,782.128 687.415,801.436 687.415,823.271C687.415,845.51 692.874,866.435 703.791,886.046C714.708,905.657 728.76,922.842 745.945,937.601C763.13,952.36 782.437,963.985 803.868,972.476C825.299,980.968 846.527,985.213 867.553,985.213C869.171,985.213 871.698,985.112 875.135,984.91C878.572,984.708 882.312,984.607 886.356,984.607C892.017,984.607 897.172,985.112 901.822,986.123C906.472,987.134 908.999,989.257 909.404,992.492C903.743,993.3 897.88,994.21 891.814,995.221C885.749,996.232 879.886,996.737 874.225,996.737C857.647,996.737 840.462,994.513 822.67,990.066C841.675,995.726 860.679,998.557 879.684,998.557C884.132,998.557 888.782,998.355 893.634,997.95C898.486,997.546 903.136,996.94 907.584,996.131L913.649,1003.409C917.288,1002.6 920.321,1002.095 922.747,1001.893C925.173,1001.691 929.419,1000.376 935.484,997.95C935.484,985.011 936.091,972.375 937.304,960.042C938.517,947.71 939.123,935.074 939.123,922.135L939.123,913.643C939.123,906.365 938.618,898.581 937.607,890.292C936.596,882.003 933.665,875.432 928.812,870.58L925.173,872.399C929.217,881.699 931.845,891.606 933.058,902.119C934.271,912.632 934.878,923.145 934.878,933.659C934.878,951.046 933.665,967.826 931.239,984C932.452,970.657 933.058,957.313 933.058,943.969C933.058,941.139 932.755,935.579 932.148,927.29C931.542,919.001 930.632,910.509 929.419,901.816C928.206,893.122 926.69,885.339 924.87,878.465C923.05,871.591 921.13,868.154 919.108,868.154C909.404,868.154 899.598,867.345 889.691,865.728C879.785,864.11 869.979,863.301 860.275,863.301L857.242,863.301L840.866,863.908C840.866,862.695 840.765,861.28 840.563,859.662C840.361,858.045 840.26,856.427 840.26,854.81C840.26,851.575 840.866,848.543 842.079,845.712C843.292,842.882 846.123,841.466 850.571,841.466L857.849,842.073L857.849,834.795C852.188,833.177 846.426,830.549 840.563,826.91C834.7,823.271 831.768,818.014 831.768,811.14C831.768,806.288 834.396,802.447 839.653,799.616C844.91,796.786 851.076,794.663 858.152,793.248C865.228,791.832 872.203,790.923 879.077,790.518C885.951,790.114 891.208,789.912 894.847,789.912C931.643,789.912 959.442,799.414 978.244,818.418C997.047,837.423 1006.448,865.323 1006.448,902.119C1006.448,926.38 1004.426,950.54 1000.383,974.599C996.339,998.658 994.317,1022.818 994.317,1047.079C994.317,1052.336 993.61,1057.188 992.195,1061.636C990.779,1066.084 986.837,1068.307 980.367,1068.307L983.4,1024.638L977.941,1066.488C976.728,1066.488 975.515,1066.589 974.302,1066.791C973.089,1066.993 971.876,1067.094 970.663,1067.094C969.854,1067.094 969.248,1066.993 968.843,1066.791C968.439,1066.589 967.832,1066.488 967.024,1066.488L967.024,1075.586C963.789,1081.651 958.937,1084.684 952.467,1084.684ZM925.173,1036.768C917.895,1037.172 910.718,1037.981 903.642,1039.194C896.565,1040.407 889.388,1041.014 882.11,1041.014C853.401,1041.014 824.894,1036.263 796.59,1026.76C768.285,1017.258 742.508,1003.915 719.257,986.73C696.007,969.545 676.093,948.822 659.515,924.561C647.788,907.174 639.095,888.371 633.434,868.154C639.095,891.202 648.597,912.026 661.941,930.626C679.328,955.696 700.556,976.722 725.626,993.705C750.696,1010.687 778.394,1023.425 808.72,1031.916C839.047,1040.407 869.575,1044.653 900.306,1044.653L903.945,1044.653C907.988,1044.653 911.83,1044.249 915.469,1043.44C919.108,1042.631 922.343,1040.407 925.173,1036.768ZM697.119,906.971L697.119,908.184C697.119,912.228 699.748,917.08 705.004,922.741C710.261,928.402 716.326,933.962 723.2,939.421C730.074,944.879 736.847,949.934 743.519,954.584C750.19,959.234 755.144,962.367 758.378,963.985C754.739,961.154 749.988,957.515 744.125,953.067C738.262,948.62 732.298,943.767 726.233,938.511C720.167,933.254 714.405,927.897 708.946,922.438C703.488,916.979 699.545,911.824 697.119,906.971ZM943.369,999.163C944.178,989.863 945.391,980.867 947.008,972.173C948.626,963.479 949.434,954.483 949.434,945.183C949.434,939.522 949.232,934.063 948.828,928.806C948.424,923.55 947.615,918.091 946.402,912.43C946.402,926.987 946.2,941.543 945.795,956.1C945.391,970.657 944.178,985.011 942.156,999.163L943.369,999.163ZM994.924,927.593C990.072,939.724 987.848,951.652 988.252,963.378C988.656,974.296 988.05,985.213 986.433,996.131C988.454,985.213 990.072,974.094 991.285,962.772C992.902,951.046 994.115,939.319 994.924,927.593ZM629.795,850.564C631.008,856.63 632.221,862.493 633.434,868.154C632.221,862.493 631.008,856.63 629.795,850.564ZM629.188,843.893C629.593,846.319 629.795,848.543 629.795,850.564C629.39,848.543 629.188,846.319 629.188,843.893Z" style="fill-rule:nonzero;"/>
        </g>
    </g>
</svg>
